<svg width="166" height="143" viewBox="0 0 166 143" fill="none"><path opacity="0.5" d="M53.786 139.176C53.7733 139.576 53.6785 139.969 53.5075 140.33C53.3366 140.692 53.0929 141.016 52.7918 141.28C52.1278 141.816 51.2891 142.089 50.4356 142.048C49.962 142.071 49.4894 141.986 49.0535 141.801C48.6176 141.615 48.2298 141.333 47.9193 140.976C47.2687 140.137 46.9449 139.091 47.0077 138.033V137.528C46.9927 136.804 47.1369 136.086 47.4302 135.424C47.6843 134.85 48.1049 134.364 48.6381 134.028C49.1878 133.697 49.8209 133.529 50.4634 133.543C51.3056 133.503 52.1326 133.776 52.7829 134.311C53.3902 134.868 53.7545 135.639 53.7979 136.46H52.0839C52.0847 136.03 51.925 135.616 51.6356 135.297C51.305 135.032 50.8848 134.902 50.4614 134.936C50.213 134.92 49.9646 134.969 49.7401 135.075C49.5155 135.182 49.3223 135.345 49.179 135.548C48.8521 136.124 48.7002 136.783 48.7415 137.444V138.069C48.6919 138.748 48.8334 139.427 49.1501 140.03C49.2915 140.238 49.4856 140.405 49.7125 140.513C49.9395 140.622 50.1913 140.67 50.4426 140.65C50.8693 140.684 51.2928 140.554 51.6276 140.289C51.9146 139.987 52.075 139.587 52.076 139.171L53.786 139.176ZM66.5115 133.655V139.108C66.5316 139.506 66.4657 139.904 66.3184 140.275C66.1712 140.646 65.9458 140.98 65.6575 141.258C65.012 141.813 64.1755 142.096 63.3241 142.049C62.4832 142.094 61.6565 141.82 61.0107 141.281C60.7216 141.013 60.4939 140.686 60.3432 140.321C60.1924 139.957 60.122 139.565 60.1368 139.172V133.655H61.8508V139.119C61.8313 139.333 61.856 139.549 61.9234 139.753C61.9907 139.957 62.0993 140.145 62.2425 140.307C62.5398 140.568 62.929 140.701 63.3251 140.679C64.2888 140.679 64.7782 140.175 64.7935 139.167V133.655H66.5115ZM76.3031 138.9H74.9441V141.934H73.2301V133.655H76.32C77.1313 133.604 77.9354 133.835 78.5937 134.31C78.8608 134.535 79.0715 134.82 79.2095 135.14C79.3475 135.46 79.409 135.809 79.3891 136.157C79.4073 136.654 79.279 137.145 79.0202 137.57C78.7442 137.973 78.3562 138.286 77.9038 138.472L79.7032 141.854V141.933H77.864L76.3031 138.9ZM74.9381 137.515H76.32C76.6828 137.538 77.0406 137.421 77.3192 137.188C77.4394 137.072 77.5332 136.931 77.5943 136.776C77.6553 136.62 77.6823 136.453 77.6731 136.287C77.6826 136.119 77.6578 135.95 77.6004 135.792C77.5431 135.634 77.4541 135.489 77.3391 135.365C77.1992 135.245 77.0365 135.153 76.8606 135.095C76.6845 135.037 76.4987 135.015 76.3141 135.03H74.9441L74.9381 137.515ZM90.3111 139.755C90.3189 139.613 90.2917 139.471 90.232 139.342C90.1722 139.213 90.0817 139.099 89.9681 139.013C89.5869 138.771 89.1709 138.586 88.7343 138.467C88.2485 138.319 87.7765 138.129 87.3236 137.901C86.9158 137.731 86.5658 137.448 86.3151 137.085C86.0645 136.723 85.9238 136.296 85.9099 135.856C85.9042 135.427 86.0373 135.008 86.2897 134.66C86.5693 134.289 86.9484 134.005 87.3833 133.838C87.8903 133.635 88.4331 133.534 88.9799 133.542C89.5274 133.532 90.0704 133.642 90.5706 133.863C91.0107 134.056 91.3863 134.371 91.6533 134.77C91.9116 135.166 92.046 135.628 92.039 136.1H90.325C90.3343 135.935 90.3068 135.77 90.2446 135.618C90.1824 135.464 90.0869 135.328 89.9651 135.216C89.6788 134.99 89.3186 134.878 88.9541 134.9C88.6083 134.88 88.2653 134.973 87.9778 135.165C87.8678 135.244 87.7787 135.348 87.7181 135.468C87.6576 135.589 87.6272 135.723 87.6298 135.857C87.6331 135.996 87.6726 136.13 87.7442 136.249C87.8158 136.368 87.9172 136.466 88.0384 136.534C88.4126 136.761 88.8174 136.933 89.2404 137.046C90.026 137.239 90.7556 137.611 91.3709 138.134C91.5889 138.342 91.761 138.594 91.8761 138.872C91.9911 139.15 92.0466 139.449 92.039 139.749C92.0513 140.075 91.9833 140.399 91.8409 140.691C91.6984 140.985 91.4858 141.239 91.2218 141.432C90.5755 141.869 89.8031 142.084 89.0227 142.043C88.4211 142.053 87.8243 141.935 87.2719 141.698C86.7882 141.498 86.3714 141.167 86.0699 140.74C85.7892 140.323 85.6434 139.832 85.6524 139.33H87.3713C87.3713 140.243 87.9197 140.7 89.0167 140.7C89.3527 140.72 89.6864 140.633 89.9701 140.453C90.0808 140.376 90.1701 140.272 90.2301 140.151C90.2899 140.03 90.3186 139.897 90.3131 139.762L90.3111 139.755ZM105.329 137.974C105.347 138.712 105.199 139.447 104.898 140.121C104.634 140.708 104.202 141.205 103.656 141.548C103.099 141.886 102.456 142.06 101.803 142.048C101.153 142.059 100.514 141.888 99.9576 141.553C99.4104 141.214 98.975 140.723 98.705 140.14C98.3972 139.479 98.2429 138.757 98.2536 138.028V137.619C98.2373 136.88 98.387 136.145 98.6921 135.47C98.9589 134.883 99.3939 134.387 99.9427 134.043C100.499 133.708 101.14 133.536 101.791 133.549C102.442 133.536 103.082 133.708 103.639 134.043C104.187 134.387 104.622 134.883 104.889 135.47C105.195 136.144 105.346 136.878 105.331 137.617L105.329 137.974ZM103.592 137.599C103.637 136.907 103.474 136.218 103.124 135.62C102.978 135.403 102.778 135.229 102.543 135.111C102.309 134.994 102.049 134.94 101.787 134.952C101.526 134.941 101.267 134.996 101.034 135.113C100.801 135.23 100.602 135.404 100.456 135.62C100.105 136.211 99.9399 136.893 99.9815 137.578V137.982C99.9413 138.669 100.104 139.353 100.45 139.949C100.593 140.173 100.793 140.356 101.03 140.479C101.266 140.601 101.531 140.66 101.798 140.649C102.058 140.66 102.318 140.604 102.55 140.486C102.782 140.368 102.98 140.192 103.123 139.975C103.469 139.38 103.632 138.697 103.591 138.011L103.592 137.599ZM116.203 139.762C116.21 139.62 116.183 139.478 116.123 139.349C116.064 139.22 115.973 139.106 115.86 139.02C115.478 138.778 115.062 138.593 114.626 138.474C114.14 138.326 113.668 138.136 113.215 137.908C112.805 137.739 112.453 137.455 112.201 137.09C111.949 136.727 111.807 136.298 111.794 135.856C111.789 135.427 111.922 135.008 112.174 134.66C112.454 134.289 112.833 134.005 113.268 133.838C113.775 133.635 114.318 133.534 114.864 133.542C115.412 133.532 115.954 133.642 116.455 133.863C116.895 134.056 117.271 134.371 117.538 134.77C117.797 135.166 117.931 135.628 117.924 136.1H116.203C116.212 135.935 116.184 135.77 116.122 135.618C116.06 135.464 115.964 135.328 115.843 135.216C115.557 134.99 115.196 134.878 114.832 134.9C114.486 134.88 114.143 134.973 113.855 135.165C113.745 135.244 113.656 135.348 113.596 135.468C113.535 135.589 113.505 135.723 113.507 135.857C113.511 135.996 113.55 136.13 113.622 136.249C113.693 136.368 113.795 136.466 113.916 136.534C114.29 136.761 114.695 136.933 115.118 137.046C115.904 137.239 116.633 137.611 117.249 138.134C117.467 138.342 117.639 138.594 117.754 138.872C117.868 139.15 117.924 139.449 117.917 139.749C117.929 140.075 117.861 140.399 117.718 140.691C117.576 140.985 117.363 141.239 117.1 141.432C116.452 141.869 115.681 142.084 114.9 142.043C114.299 142.051 113.704 141.932 113.152 141.694C112.669 141.494 112.252 141.163 111.95 140.736C111.672 140.32 111.527 139.83 111.537 139.33H113.256C113.256 140.243 113.804 140.7 114.901 140.7C115.237 140.72 115.571 140.633 115.855 140.453C115.966 140.376 116.057 140.273 116.117 140.152C116.178 140.031 116.208 139.897 116.203 139.762Z" fill="white"></path><path fill-rule="evenodd" clip-rule="evenodd" d="M59.8794 60H104.398C106.487 59.9976 108.49 59.1706 109.967 57.7002C111.444 56.2299 112.275 54.2363 112.277 52.1569V7.84314C112.275 5.76373 111.444 3.77015 109.967 2.29978C108.49 0.829413 106.487 0.0023354 104.398 0H59.8794C57.7904 0.0023354 55.7875 0.829413 54.3103 2.29978C52.8332 3.77015 52.0023 5.76373 52 7.84314V52.1569C52.0023 54.2363 52.8332 56.2299 54.3103 57.7002C55.7875 59.1706 57.7904 59.9976 59.8794 60ZM92.4793 10.7925L97.6379 11.5569C98.0042 11.618 98.1568 12.0156 97.9126 12.3825L95.4401 15.4709C95.196 15.7155 95.3485 16.1436 95.6844 16.2047L97.2716 16.5717C97.8211 16.694 98.0347 17.3362 97.699 17.7642L90.5258 26.9682L89.5794 28.1914C89.3658 28.4666 88.9995 28.5582 88.6943 28.4054L86.6491 27.4575C86.4049 27.3352 86.0692 27.3657 85.8555 27.5798L84.4819 28.864C84.2682 29.0781 83.9325 29.1392 83.6577 28.9864L82.8336 28.5582C82.5893 28.4054 82.2536 28.4666 82.04 28.65L79.3232 31.0351C78.9264 31.3715 78.3465 31.4326 77.8886 31.1574L76.2709 30.1483L72.9437 28.0996L71.9059 27.4575C71.448 27.1823 71.2343 26.6625 71.3564 26.1426L71.8448 23.9716C71.9669 23.5129 72.4858 23.2682 72.9132 23.4824L73.5847 23.8187C73.8289 23.941 74.1341 23.9104 74.3478 23.7575L75.7214 22.8096C75.9351 22.6567 76.2098 22.6262 76.454 22.7484L79.1707 23.9716C79.3843 24.0633 79.6285 24.0022 79.7506 23.8187L86.8934 14.6453C87.0765 14.4007 87.3817 14.3089 87.6564 14.3701L89.4574 14.7675C89.671 14.7981 89.8541 14.6147 89.7932 14.4007C89.7321 14.1866 89.7626 13.942 89.9152 13.7585L92.113 10.8842C92.174 10.823 92.3267 10.7619 92.4793 10.7925ZM73.981 30.0872C73.8284 29.9954 73.6757 30.1483 73.7368 30.3012L74.4999 32.3193C74.5609 32.4723 74.5609 32.6251 74.5304 32.778L73.8589 35.4077C73.8284 35.5912 73.8894 35.7747 74.0116 35.8664L75.9345 37.3647C76.1177 37.4871 76.3619 37.4871 76.5145 37.3341L78.5291 35.5606C78.6512 35.4689 78.8038 35.4077 78.9259 35.3772L81.2153 35.1325C81.3678 35.102 81.4289 34.8879 81.2763 34.7962L73.981 30.0872ZM72.8518 36.8144C73.0045 36.7532 73.1876 36.7838 73.3097 36.8756L75.3853 38.4656C75.4769 38.5574 75.538 38.6796 75.538 38.8326L75.3548 41.1565C75.3243 41.2788 75.2937 41.3705 75.2022 41.4623L66.2585 50.4522C66.1975 50.5439 66.0754 50.4522 66.1365 50.3605L68.609 46.2935C68.6395 46.263 68.609 46.2019 68.5784 46.1713H68.4868L67.6932 46.4771C67.6321 46.4771 67.6017 46.4465 67.5711 46.4159V46.3547L71.0203 37.8234C71.0814 37.7318 71.1425 37.64 71.2341 37.6094L72.8518 36.8144Z" fill="#8257E6"></path><path d="M0 119V88.4297H9.40625C12.0938 88.4297 14.4943 89.0386 16.6079 90.2563C18.7355 91.4601 20.3942 93.1818 21.584 95.4214C22.7738 97.647 23.3687 100.181 23.3687 103.022V104.429C23.3687 107.27 22.7808 109.797 21.605 112.008C20.4432 114.22 18.7985 115.935 16.6709 117.152C14.5433 118.37 12.1427 118.986 9.46924 119H0ZM6.29883 93.5317V113.94H9.34326C11.8068 113.94 13.6895 113.135 14.9912 111.525C16.293 109.916 16.9578 107.613 16.9858 104.618V103.001C16.9858 99.8936 16.342 97.542 15.0542 95.9463C13.7664 94.3366 11.8838 93.5317 9.40625 93.5317H6.29883Z" fill="white"></path><path d="M33.9717 119H27.8828V96.2822H33.9717V119ZM27.5259 90.4033C27.5259 89.4935 27.8268 88.7446 28.4287 88.1567C29.0446 87.5688 29.8774 87.2749 30.9272 87.2749C31.9631 87.2749 32.7889 87.5688 33.4048 88.1567C34.0207 88.7446 34.3286 89.4935 34.3286 90.4033C34.3286 91.3271 34.0137 92.083 33.3838 92.6709C32.7679 93.2588 31.9491 93.5527 30.9272 93.5527C29.9054 93.5527 29.0796 93.2588 28.4497 92.6709C27.8338 92.083 27.5259 91.3271 27.5259 90.4033Z" fill="white"></path><path d="M51.2935 112.722C51.2935 111.98 50.9225 111.399 50.1807 110.979C49.4528 110.546 48.277 110.161 46.6533 109.825C41.2503 108.691 38.5488 106.395 38.5488 102.938C38.5488 100.922 39.3817 99.2427 41.0474 97.8989C42.7271 96.5412 44.9176 95.8623 47.6191 95.8623C50.5026 95.8623 52.8052 96.5412 54.5269 97.8989C56.2625 99.2567 57.1304 101.02 57.1304 103.19H51.0625C51.0625 102.322 50.7826 101.608 50.2227 101.048C49.6628 100.474 48.7879 100.188 47.5981 100.188C46.5763 100.188 45.7855 100.418 45.2256 100.88C44.6657 101.342 44.3857 101.93 44.3857 102.644C44.3857 103.316 44.7007 103.862 45.3306 104.282C45.9744 104.688 47.0522 105.045 48.564 105.353C50.0757 105.646 51.3494 105.982 52.3853 106.36C55.5907 107.536 57.1934 109.573 57.1934 112.47C57.1934 114.542 56.3045 116.222 54.5269 117.509C52.7492 118.783 50.4536 119.42 47.6401 119.42C45.7365 119.42 44.0428 119.084 42.5591 118.412C41.0894 117.726 39.9346 116.795 39.0947 115.62C38.2549 114.43 37.835 113.149 37.835 111.777H43.5879C43.6439 112.855 44.0428 113.681 44.7847 114.255C45.5265 114.829 46.5203 115.116 47.7661 115.116C48.9279 115.116 49.8027 114.899 50.3906 114.465C50.9925 114.017 51.2935 113.436 51.2935 112.722Z" fill="white"></path><path d="M70.5679 114.528C71.6877 114.528 72.5975 114.22 73.2974 113.604C73.9972 112.988 74.3612 112.169 74.3892 111.147H80.0791C80.0651 112.687 79.6452 114.101 78.8193 115.389C77.9935 116.662 76.8597 117.656 75.418 118.37C73.9902 119.07 72.4085 119.42 70.6729 119.42C67.4255 119.42 64.8639 118.391 62.9883 116.333C61.1126 114.262 60.1748 111.406 60.1748 107.767V107.368C60.1748 103.869 61.1056 101.076 62.9673 98.9907C64.8289 96.9051 67.3835 95.8623 70.6309 95.8623C73.4723 95.8623 75.7469 96.6742 77.4546 98.2979C79.1763 99.9076 80.0511 102.056 80.0791 104.744H74.3892C74.3612 103.568 73.9972 102.616 73.2974 101.888C72.5975 101.146 71.6737 100.775 70.5259 100.775C69.1121 100.775 68.0413 101.293 67.3135 102.329C66.5996 103.351 66.2427 105.017 66.2427 107.326V107.956C66.2427 110.294 66.5996 111.973 67.3135 112.995C68.0273 114.017 69.1121 114.528 70.5679 114.528Z" fill="white"></path><path d="M82.5986 107.431C82.5986 105.178 83.0326 103.169 83.9004 101.405C84.7682 99.6416 86.014 98.2769 87.6377 97.311C89.2754 96.3452 91.172 95.8623 93.3276 95.8623C96.3931 95.8623 98.8916 96.8001 100.823 98.6758C102.769 100.551 103.854 103.099 104.078 106.318L104.12 107.872C104.12 111.357 103.147 114.157 101.201 116.271C99.2555 118.37 96.645 119.42 93.3696 119.42C90.0942 119.42 87.4767 118.37 85.5171 116.271C83.5714 114.171 82.5986 111.315 82.5986 107.704V107.431ZM88.6665 107.872C88.6665 110.028 89.0724 111.679 89.8843 112.827C90.6961 113.961 91.8579 114.528 93.3696 114.528C94.8394 114.528 95.9871 113.968 96.813 112.848C97.6388 111.714 98.0518 109.909 98.0518 107.431C98.0518 105.318 97.6388 103.68 96.813 102.518C95.9871 101.356 94.8254 100.775 93.3276 100.775C91.8439 100.775 90.6961 101.356 89.8843 102.518C89.0724 103.666 88.6665 105.451 88.6665 107.872Z" fill="white"></path><path d="M116.024 111.588L120.245 96.2822H126.585L118.922 119H113.127L105.463 96.2822H111.804L116.024 111.588Z" fill="white"></path><path d="M139.435 119.42C136.104 119.42 133.388 118.398 131.289 116.354C129.203 114.311 128.16 111.588 128.16 108.187V107.599C128.16 105.318 128.601 103.281 129.483 101.489C130.365 99.6836 131.611 98.2979 133.22 97.332C134.844 96.3522 136.692 95.8623 138.763 95.8623C141.871 95.8623 144.313 96.8421 146.091 98.8018C147.882 100.761 148.778 103.54 148.778 107.137V109.615H134.312C134.508 111.098 135.096 112.288 136.076 113.184C137.07 114.08 138.322 114.528 139.834 114.528C142.172 114.528 143.998 113.681 145.314 111.987L148.295 115.326C147.386 116.613 146.154 117.621 144.6 118.349C143.046 119.063 141.325 119.42 139.435 119.42ZM138.742 100.775C137.538 100.775 136.559 101.181 135.803 101.993C135.061 102.805 134.585 103.967 134.375 105.479H142.815V104.996C142.787 103.652 142.424 102.616 141.724 101.888C141.024 101.146 140.03 100.775 138.742 100.775Z" fill="white"></path><path d="M165.008 101.972C164.182 101.86 163.455 101.804 162.825 101.804C160.529 101.804 159.024 102.581 158.311 104.135V119H152.243V96.2822H157.975L158.143 98.9907C159.36 96.9051 161.047 95.8623 163.203 95.8623C163.875 95.8623 164.504 95.9533 165.092 96.1353L165.008 101.972Z" fill="white"></path></svg>
