<svg width="173" height="48" viewBox="0 0 173 48" fill="none"><g clip-path="url(#clip0)"><path d="M13.8004 31.4939H4.72596V37.6416H15.3745V41.4413H0V18.489H15.3429V22.3193H4.72596V27.7898H13.7995L13.8004 31.4939ZM24.3425 29.476L27.2106 24.3842H32.0762L27.2205 32.7428L32.2744 41.4413H27.3917L24.3507 36.0808L21.3259 41.4413H16.4305L21.4871 32.7428L16.6476 24.3887H21.5349L24.3425 29.476ZM49.6141 33.0701C49.7254 35.3138 49.0956 37.5319 47.8219 39.3818C47.2721 40.1421 46.5445 40.756 45.7027 41.1695C44.8609 41.5831 43.9305 41.7838 42.9932 41.7541C42.2081 41.7829 41.4265 41.637 40.7046 41.3268C39.9827 41.0167 39.3386 40.5501 38.8187 39.9607V47.9974H34.263V24.3842H38.4853L38.643 26.055C39.1612 25.4142 39.8203 24.9017 40.569 24.5577C41.3176 24.2136 42.1355 24.0471 42.959 24.0713C43.904 24.0284 44.845 24.2186 45.6993 24.6253C46.5536 25.0319 47.2949 25.6424 47.8579 26.4031C49.1227 28.3003 49.7362 30.5578 49.6059 32.8347L49.6141 33.0701ZM45.0521 32.7428C45.1283 31.4617 44.8359 30.1856 44.2096 29.0657C43.9524 28.6525 43.5901 28.3152 43.1598 28.0881C42.7295 27.8611 42.2466 27.7525 41.7606 27.7736C41.1617 27.7179 40.56 27.8447 40.0345 28.1374C39.509 28.4301 39.0842 28.8751 38.816 29.4138V36.4009C39.0845 36.9488 39.5119 37.4028 40.0424 37.7038C40.5729 38.0048 41.1817 38.1387 41.7894 38.0879C43.9645 38.0849 45.0521 36.3032 45.0521 32.7428ZM60.2689 41.7596C59.1492 41.8047 58.0319 41.6242 56.9832 41.2289C55.9346 40.8336 54.976 40.2316 54.1643 39.4585C53.3697 38.6548 52.7503 37.695 52.345 36.6397C51.9398 35.5843 51.7576 34.4564 51.8099 33.327V32.8843C51.7815 31.2955 52.1207 29.7216 52.801 28.2858C53.412 26.9919 54.39 25.9065 55.6132 25.165C56.8692 24.423 58.306 24.0438 59.7643 24.0695C60.7869 24.0166 61.8088 24.1867 62.7594 24.5678C63.7099 24.9489 64.5664 25.532 65.2697 26.2768C66.6086 27.7484 67.2781 29.8345 67.2781 32.5354V34.3955H56.4268C56.5295 35.4207 57.0023 36.3733 57.7568 37.0744C58.53 37.7595 59.5369 38.1207 60.5689 38.0834C61.3569 38.1191 62.1418 37.9645 62.8575 37.6325C63.5731 37.3006 64.1983 36.8011 64.6804 36.1764L66.9204 38.683C66.2122 39.6702 65.254 40.4508 64.1443 40.9444C62.9283 41.4966 61.6058 41.774 60.2707 41.7568L60.2689 41.7596ZM59.749 27.7619C59.3384 27.747 58.9295 27.8211 58.5502 27.9791C58.1709 28.137 57.8302 28.3751 57.5513 28.6771C56.9347 29.4185 56.5596 30.331 56.4764 31.292H62.8089V30.9313C62.8443 30.0739 62.5514 29.2354 61.9899 28.5869C61.6955 28.2989 61.3441 28.076 60.9582 27.9325C60.5724 27.789 60.1607 27.7281 59.7499 27.7538L59.749 27.7619ZM79.4403 28.6591C78.8966 28.5799 78.3481 28.5371 77.7986 28.531C76.0765 28.531 74.9477 29.1141 74.4125 30.2803V41.4413H69.8614V24.3842H74.1629L74.2891 26.4184C74.6397 25.7117 75.1812 25.1174 75.8522 24.703C76.5231 24.2887 77.2967 24.0708 78.0852 24.074C78.5652 24.0705 79.0431 24.1395 79.5025 24.2787L79.4403 28.6591ZM87.8642 20.1941V24.3878H90.7782V27.7267H87.866V36.2404C87.8223 36.7197 87.95 37.199 88.2264 37.5929C88.4173 37.7523 88.6389 37.8709 88.8774 37.9413C89.1159 38.0118 89.3663 38.0325 89.6131 38.0023C90.0619 38.0072 90.5101 37.9703 90.952 37.8922V41.3448C90.0589 41.6182 89.1298 41.7565 88.1958 41.755C85.0031 41.755 83.3752 40.1407 83.3121 36.9121V27.7267H80.8279V24.3842H83.3166V20.1878L87.8642 20.1941ZM102.551 36.7309C102.55 36.4559 102.472 36.1867 102.326 35.954C102.18 35.7212 101.971 35.5342 101.724 35.4144C100.887 34.9972 99.9922 34.7075 99.0695 34.5551C95.016 33.7039 92.9893 31.9802 92.9893 29.384C92.9846 28.6493 93.1525 27.9238 93.4795 27.266C93.8064 26.6082 94.2833 26.0365 94.8716 25.5969C96.2846 24.53 98.0257 23.9907 99.794 24.0722C101.648 23.9785 103.478 24.5191 104.984 25.6051C105.602 26.0636 106.101 26.6636 106.439 27.3548C106.778 28.046 106.946 28.8083 106.929 29.5779H102.377C102.387 29.2801 102.336 28.9836 102.227 28.7062C102.119 28.4288 101.955 28.1763 101.747 27.9639C101.477 27.7313 101.164 27.5549 100.825 27.4453C100.487 27.3357 100.13 27.2949 99.775 27.3255C99.1393 27.2853 98.5096 27.4694 97.9955 27.8457C97.7949 28.0025 97.6335 28.2037 97.5241 28.4336C97.4146 28.6635 97.3601 28.9157 97.3648 29.1703C97.3656 29.4197 97.4328 29.6643 97.5595 29.8791C97.6862 30.0938 97.8678 30.2709 98.0856 30.3921C98.8387 30.8013 99.6574 31.0759 100.505 31.2036C101.479 31.3861 102.437 31.6417 103.373 31.9682C105.776 32.8513 106.977 34.3802 106.977 36.5551C106.987 37.3018 106.809 38.0391 106.46 38.6988C106.11 39.3586 105.6 39.9197 104.977 40.3304C103.45 41.3495 101.638 41.8549 99.8039 41.7731C98.4954 41.798 97.1973 41.5374 95.9997 41.0094C94.9601 40.5548 94.0603 39.8311 93.393 38.913C92.7803 38.0788 92.4492 37.0709 92.4478 36.0357H96.7638C96.764 36.3932 96.8447 36.7461 96.9999 37.0682C97.1551 37.3902 97.3808 37.6731 97.6603 37.8959C98.3133 38.3568 99.1023 38.5845 99.9003 38.5424C100.595 38.5899 101.287 38.4159 101.877 38.0455C102.087 37.9008 102.258 37.7062 102.375 37.4792C102.492 37.2521 102.55 36.9997 102.546 36.7444L102.551 36.7309Z" fill="#E6E6E6"></path><path d="M128.213 33.7959C128.178 34.9027 127.918 35.9907 127.448 36.9932C126.978 37.9956 126.308 38.8913 125.48 39.6253C123.649 41.1099 121.336 41.8687 118.982 41.7568C117.676 41.8191 116.372 41.5837 115.17 41.0682C113.968 40.5527 112.899 39.7707 112.044 38.7813C110.358 36.8006 109.515 34.0805 109.515 30.6211V29.2226C109.474 27.2177 109.872 25.2281 110.68 23.3932C111.382 21.7997 112.543 20.4521 114.014 19.5232C115.787 18.5221 117.815 18.0627 119.846 18.2018C121.877 18.3409 123.823 19.0724 125.443 20.3059C127.123 21.8534 128.13 23.9984 128.247 26.2804H123.521C123.523 25.0894 123.082 23.9403 122.284 23.0569C121.373 22.3216 120.214 21.9635 119.047 22.056C118.362 22.0126 117.678 22.1456 117.059 22.4424C116.44 22.7392 115.907 23.1898 115.512 23.7512C114.731 24.8813 114.329 26.6336 114.306 29.008V30.7419C114.306 33.2221 114.682 35.0348 115.432 36.1799C115.822 36.7535 116.355 37.2143 116.979 37.516C117.602 37.8177 118.294 37.9497 118.985 37.8985C120.162 37.9892 121.33 37.6299 122.252 36.8932C123.044 36.0562 123.487 34.9484 123.49 33.7959H128.213ZM135.821 41.4412H131.248V17.2275H135.818L135.821 41.4412ZM149.778 39.7073C149.213 40.3864 148.498 40.925 147.689 41.2806C146.881 41.6362 146 41.7993 145.118 41.7568C144.349 41.8092 143.577 41.6955 142.856 41.4236C142.134 41.1517 141.479 40.7278 140.936 40.1807C139.888 38.878 139.363 37.2315 139.462 35.5623V24.3815H144.014V35.4018C144.014 37.1781 144.823 38.0663 146.44 38.0663C147.069 38.1329 147.703 38.0167 148.268 37.7315C148.832 37.4464 149.303 37.0044 149.622 36.4586V24.3842H154.193V41.443H149.908L149.778 39.7073ZM172.983 33.0709C173.118 35.3359 172.503 37.5822 171.235 39.463C170.668 40.2131 169.927 40.8139 169.076 41.2135C168.225 41.6132 167.29 41.7996 166.351 41.7568C165.497 41.7838 164.649 41.6045 163.878 41.2341C163.108 40.8637 162.438 40.3131 161.925 39.6289L161.72 41.4412H157.625V17.2275H162.177V25.9134C162.683 25.3117 163.319 24.833 164.037 24.5134C164.755 24.1938 165.536 24.0417 166.321 24.0686C167.261 24.0287 168.196 24.2164 169.048 24.6157C169.899 25.0151 170.642 25.6143 171.212 26.3625C172.394 27.8917 172.985 30.044 172.985 32.8194L172.983 33.0709ZM168.429 32.7427C168.527 31.4315 168.243 30.1198 167.61 28.9674C167.339 28.5759 166.972 28.2608 166.545 28.0523C166.117 27.8439 165.643 27.7491 165.168 27.7772C164.546 27.726 163.924 27.87 163.387 28.1891C162.851 28.5083 162.427 28.9867 162.175 29.558V36.289C162.432 36.8641 162.861 37.3453 163.403 37.6665C163.944 37.9877 164.572 38.133 165.2 38.0825C165.862 38.1201 166.515 37.9223 167.046 37.5242C167.576 37.1261 167.948 36.5532 168.097 35.9067C168.357 34.8731 168.469 33.8078 168.428 32.7427H168.429Z" fill="#D6AC4E"></path><path d="M45.9117 4.10633H44.8719V6.42725H43.569V0.087543H45.9234C46.5413 0.0477143 47.1537 0.224679 47.6552 0.587975C47.8592 0.760699 48.0205 0.97845 48.1261 1.22409C48.2318 1.46974 48.2791 1.73658 48.2643 2.00361C48.2776 2.3842 48.1793 2.76035 47.9814 3.08563C47.7716 3.39295 47.4766 3.63212 47.1326 3.77361L48.504 6.36503V6.42635H47.1029L45.9117 4.10633ZM44.8719 3.04776H45.9252C46.2013 3.06565 46.4738 2.9769 46.6866 2.79979C46.7782 2.71023 46.8498 2.60214 46.8964 2.48273C46.943 2.36331 46.9636 2.23533 46.9569 2.1073C46.964 1.9785 46.9449 1.84959 46.9008 1.72839C46.8566 1.60719 46.7884 1.49621 46.7001 1.40219C46.5942 1.30929 46.4707 1.23866 46.3369 1.19451C46.2032 1.15036 46.0619 1.1336 45.9216 1.14521H44.8728L44.8719 3.04776Z" fill="#E6E6E6" fill-opacity="0.5"></path><path d="M57.9405 3.40124C57.9527 3.96627 57.8397 4.527 57.6098 5.0432C57.4082 5.49173 57.0784 5.87045 56.6619 6.13153C56.238 6.39114 55.7487 6.5241 55.2518 6.51474C54.757 6.52306 54.2699 6.39182 53.8461 6.13603C53.4283 5.87649 53.0954 5.5004 52.8883 5.05402C52.6536 4.54566 52.5363 3.99093 52.545 3.431V3.12262C52.5331 2.55569 52.6476 1.99323 52.8802 1.47616C53.0836 1.02623 53.4149 0.64616 53.8326 0.383321C54.2594 0.132335 54.7455 0 55.2405 0C55.7355 0 56.2216 0.132335 56.6484 0.383321C57.0679 0.644358 57.3999 1.02493 57.6017 1.47616C57.8369 1.99093 57.953 2.55219 57.9414 3.11811L57.9405 3.40124ZM56.6177 3.11361C56.651 2.58373 56.5255 2.05599 56.2573 1.59788C56.1401 1.43851 55.9871 1.30895 55.8106 1.21966C55.6341 1.13036 55.4391 1.08384 55.2414 1.08384C55.0436 1.08384 54.8487 1.13036 54.6722 1.21966C54.4957 1.30895 54.3427 1.43851 54.2255 1.59788C53.9585 2.04986 53.833 2.57152 53.8651 3.09557V3.40485C53.8358 3.93151 53.9611 4.45523 54.2255 4.91155C54.3394 5.07509 54.4908 5.20903 54.6669 5.3022C54.843 5.39537 55.0389 5.44508 55.2381 5.4472C55.4373 5.44932 55.6341 5.40377 55.8122 5.31437C55.9903 5.22496 56.1444 5.09428 56.2618 4.9332C56.5267 4.47706 56.652 3.95319 56.6222 3.42649L56.6177 3.11361Z" fill="#E6E6E6" fill-opacity="0.5"></path><path d="M67.3385 4.3154C67.3291 4.62149 67.2571 4.92241 67.127 5.19955C66.9968 5.47669 66.8112 5.72417 66.5817 5.9267C66.0766 6.33679 65.4382 6.5461 64.7886 6.5146C64.4277 6.53197 64.0675 6.46734 63.7351 6.32554C63.4027 6.18375 63.1068 5.96848 62.8694 5.69587C62.3743 5.05254 62.127 4.25239 62.1729 3.44168V3.05395C62.1614 2.49981 62.2712 1.94986 62.4945 1.44265C62.6874 1.00267 63.0075 0.630531 63.4136 0.374163C63.9032 0.096227 64.4636 -0.0316861 65.0252 0.00630455C65.5868 0.0442952 66.1249 0.246516 66.5727 0.587861C67.0367 1.01531 67.3148 1.60766 67.3475 2.23793H66.0419C66.0429 1.90927 65.9203 1.59226 65.6986 1.34978C65.4484 1.14505 65.1288 1.0452 64.8066 1.07116C64.6168 1.05931 64.4271 1.09635 64.2556 1.17875C64.0841 1.26115 63.9366 1.38616 63.8272 1.54184C63.5796 1.98315 63.4648 2.48665 63.4965 2.99174V3.47053C63.4591 3.9902 63.566 4.51011 63.8056 4.97273C63.9137 5.13112 64.0615 5.25831 64.2341 5.34154C64.4068 5.42478 64.5983 5.46115 64.7895 5.44701C65.1132 5.47389 65.4351 5.37725 65.6905 5.17651C65.9104 4.94508 66.0335 4.63832 66.0347 4.31901L67.3385 4.3154Z" fill="#E6E6E6" fill-opacity="0.5"></path><path d="M73.6556 3.88437L72.9771 4.61564V6.42711H71.6715V0.0874023H72.9771V2.96105L73.5511 2.17299L75.1658 0.0874023H76.7714L74.5188 2.90515L76.8336 6.42801H75.2829L73.6556 3.88437Z" fill="#E6E6E6" fill-opacity="0.5"></path><path d="M84.6161 3.67969H82.1094V5.37755H85.0513V6.42711H80.8047V0.0874023H85.0396V1.14507H82.1067V2.65539H84.6134L84.6161 3.67969Z" fill="#E6E6E6" fill-opacity="0.5"></path><path d="M94.1491 1.14507H92.2082V6.42711H90.9053V1.14507H88.9906V0.0874023H94.1491V1.14507Z" fill="#E6E6E6" fill-opacity="0.5"></path><path d="M101.59 4.76356C101.596 4.65499 101.575 4.54658 101.53 4.44785C101.484 4.34913 101.415 4.2631 101.329 4.19731C101.039 4.0101 100.722 3.86897 100.389 3.77893C100.019 3.66473 99.659 3.51902 99.3138 3.34342C99.0015 3.21348 98.7332 2.99605 98.5414 2.71724C98.3496 2.43844 98.2424 2.11014 98.2325 1.77179C98.2282 1.44411 98.3289 1.12368 98.52 0.85749C98.7326 0.57323 99.0208 0.354516 99.3516 0.226314C99.7392 0.0704912 100.154 -0.00644849 100.572 -7.33294e-06C100.988 -0.0077002 101.402 0.076978 101.782 0.247955C102.117 0.394341 102.403 0.63488 102.604 0.940444C102.803 1.24264 102.906 1.59764 102.901 1.95934H101.595C101.603 1.83376 101.583 1.70801 101.536 1.5912C101.489 1.47439 101.417 1.36945 101.325 1.28398C101.107 1.10975 100.833 1.02294 100.555 1.04053C100.291 1.02448 100.029 1.09646 99.8103 1.24521C99.7258 1.30511 99.6574 1.38489 99.611 1.47751C99.5647 1.57013 99.5418 1.67275 99.5444 1.7763C99.5468 1.88208 99.5765 1.98544 99.6307 2.0763C99.6848 2.16717 99.7616 2.24244 99.8535 2.29477C100.14 2.46809 100.449 2.60014 100.772 2.687C101.37 2.83405 101.925 3.11872 102.394 3.51835C102.56 3.67779 102.691 3.87016 102.778 4.08317C102.866 4.29619 102.908 4.52515 102.903 4.75545C102.912 5.00546 102.86 5.254 102.752 5.47938C102.643 5.70477 102.481 5.90015 102.28 6.04846C101.787 6.38211 101.199 6.54578 100.605 6.51463C100.147 6.5207 99.6929 6.43007 99.2723 6.24863C98.9034 6.09427 98.5853 5.83933 98.3542 5.51286C98.1421 5.19252 98.0326 4.81504 98.0406 4.43085H99.3507C99.3507 5.13055 99.7685 5.4804 100.604 5.4804C100.86 5.49507 101.114 5.42951 101.33 5.29285C101.414 5.23298 101.481 5.15329 101.527 5.06092C101.572 4.96855 101.594 4.86638 101.59 4.76356Z" fill="#E6E6E6" fill-opacity="0.5"></path><path d="M111.074 3.67969H108.567V5.37755H111.509V6.42711H107.263V0.0874023H111.505V1.14507H108.572V2.65539H111.079L111.074 3.67969Z" fill="#E6E6E6" fill-opacity="0.5"></path><path d="M119.328 5.12058H117.039L116.604 6.42711H115.216L117.573 0.0874023H118.784L121.155 6.42801H119.767L119.328 5.12058ZM117.391 4.06201H118.975L118.179 1.68878L117.391 4.06201Z" fill="#E6E6E6" fill-opacity="0.5"></path><path d="M129.471 1.14507H127.53V6.42711H126.224V1.14507H124.309V0.0874023H129.471V1.14507Z" fill="#E6E6E6" fill-opacity="0.5"></path></g><defs><clipPath id="clip0"><rect width="173" height="48" fill="white"></rect></clipPath></defs></svg>
