<svg width="164" height="146" viewBox="0 0 164 146" fill="none"><path d="M89.9777 6.42929C93.0437 4.05529 94.7256 3.56131 97.2966 3.56131C98.0499 3.56147 98.7935 3.73062 99.4727 4.0563C101.748 5.3423 102.737 9.19931 102.044 14.7383L105.308 16.5183C106.396 8.60631 104.908 3.16629 101.055 0.990292C99.8463 0.317237 98.4815 -0.0239697 97.0986 0.00130915C93.6366 0.00130915 90.8676 0.990298 86.5156 4.4523C87.8016 5.1433 88.8907 5.83529 89.9777 6.42929Z" fill="white"></path><path d="M52.199 41.0403C47.649 38.8643 46.561 37.0843 46.561 34.6113C46.561 32.0403 49.132 29.5673 53.781 27.3913V23.4403C46.858 26.3083 43 30.2643 43 34.5173C43 38.8693 45.2751 41.9353 52.2001 44.8033L52.199 41.0403Z" fill="white"></path><path d="M61.396 13.1543C60.802 7.71434 61.7961 5.43934 64.1651 4.15434C64.8178 3.75824 65.5813 3.58455 66.3411 3.65934C68.9131 3.65934 71.8801 5.04434 74.9411 7.41734L78.2051 5.63734C73.9521 2.17534 69.6991 0.197335 66.2371 0.197335C64.8543 0.172247 63.4894 0.513441 62.2811 1.18632C58.4241 3.46132 56.8411 7.21933 58.0281 15.1313C59.2201 14.3413 60.308 13.7483 61.396 13.1543Z" fill="white"></path><path d="M111.44 24.4293V28.1873C115.99 30.3633 117.078 32.1433 117.078 34.6163C117.078 37.1873 114.507 39.6603 109.858 41.8363V45.7923C116.781 42.9243 120.639 38.9683 120.639 34.7153C120.638 30.3633 118.462 27.2973 111.44 24.4293Z" fill="white"></path><path d="M73.7581 62.7053C70.6911 65.0793 69.0102 65.5733 66.4392 65.5733C65.6859 65.5732 64.9423 65.404 64.2631 65.0783C61.8891 63.7923 60.9991 59.8363 61.6911 54.3963C60.6031 53.8033 59.4161 53.2093 58.3281 52.5173C57.2401 60.3303 58.7281 65.7703 62.4821 67.9463C63.6905 68.6192 65.0552 68.9604 66.4381 68.9353C69.9001 69.0353 72.7681 68.0453 77.1201 64.5833L73.7581 62.7053Z" fill="white"></path><path d="M102.243 56.0793C102.837 61.5193 101.748 63.7943 99.4744 65.0793C98.8217 65.4754 98.0581 65.6491 97.2983 65.5743C94.7273 65.5743 91.7604 64.1893 88.5984 61.8163C87.5104 62.4093 86.4224 63.0033 85.2354 63.5963C89.5874 67.1573 93.7414 69.1353 97.3014 69.1353C98.6845 69.1605 100.05 68.8193 101.258 68.1463C105.115 65.8713 106.797 62.1133 105.511 54.2013C104.518 54.7933 103.331 55.3873 102.243 56.0793Z" fill="white"></path><path fill-rule="evenodd" clip-rule="evenodd" d="M96.8319 10.1314C100.886 12.3672 104.94 14.6028 108.969 16.8143C109.727 17.2435 110.362 17.8601 110.813 18.6052C111.264 19.3503 111.516 20.1988 111.545 21.0693V48.1693C111.525 49.0783 111.256 49.9645 110.768 50.7316C110.28 51.4988 109.591 52.1177 108.776 52.5213C104.709 54.7531 100.643 57.0095 96.576 59.2658C92.5323 61.5095 88.4887 63.7531 84.4452 65.9723C83.189 66.6007 81.745 66.7431 80.3903 66.3723H80.2902L79.8903 66.1723C79.5764 66.081 79.2768 65.9464 79.0002 65.7723L74.9452 63.4973L61.6923 56.1783C60.5511 55.5834 59.4348 54.9633 58.3184 54.3432C57.2093 53.727 56.1 53.1109 54.9662 52.5193C54.1467 52.1217 53.4539 51.5042 52.965 50.7357C52.476 49.9672 52.2102 49.078 52.1973 48.1673V21.0673C52.2328 20.1871 52.4978 19.3315 52.9662 18.5854C53.4346 17.8394 54.0899 17.2288 54.8672 16.8143C58.9341 14.5825 63.0007 12.3261 67.0673 10.0698L67.0674 10.0697L67.0684 10.0692C71.1117 7.82573 75.155 5.58233 79.1982 3.36328C80.0201 2.92487 80.9373 2.69556 81.8688 2.69556C82.8003 2.69556 83.7173 2.92487 84.5392 3.36328C88.6199 5.60264 92.7255 7.86681 96.8308 10.1308L96.8319 10.1314ZM91.1199 17.0075L95.8402 17.7102C96.1754 17.7664 96.315 18.1318 96.0916 18.4691L93.8292 21.3082C93.6057 21.533 93.7454 21.9266 94.0526 21.9828L95.505 22.3201C96.0078 22.4325 96.2033 23.0228 95.8961 23.4164L89.3323 31.8772L88.4665 33.0016C88.271 33.2546 87.9358 33.3389 87.6565 33.1983L85.7851 32.327C85.5617 32.2145 85.2545 32.2426 85.0589 32.4394L83.8021 33.62C83.6065 33.8167 83.2993 33.873 83.0479 33.7324L82.2938 33.3389C82.0704 33.1983 81.7631 33.2546 81.5676 33.4232L79.0818 35.6157C78.7187 35.9249 78.188 35.9811 77.769 35.7282L76.2887 34.8006L73.2442 32.9172L72.2946 32.327C71.8756 32.074 71.6801 31.5961 71.7918 31.1183L72.2387 29.1225C72.3505 28.7009 72.8253 28.476 73.2163 28.6728L73.8308 28.982C74.0542 29.0944 74.3335 29.0663 74.5291 28.9257L75.7859 28.0544C75.9815 27.9138 76.2328 27.8857 76.4563 27.9981L78.9421 29.1225C79.1376 29.2068 79.3611 29.1506 79.4728 28.982L86.0086 20.5492C86.1762 20.3244 86.4555 20.24 86.7069 20.2962L88.3548 20.6617C88.5503 20.6898 88.7179 20.5211 88.662 20.3244C88.6061 20.1276 88.6341 19.9027 88.7737 19.7341L90.7847 17.0918C90.8406 17.0356 90.9803 16.9794 91.1199 17.0075ZM74.1934 34.7443C74.0537 34.66 73.9141 34.8005 73.97 34.9411L74.6682 36.7963C74.7241 36.9368 74.7241 37.0774 74.6962 37.2179L74.0817 39.6353C74.0537 39.8039 74.1096 39.9726 74.2213 40.0569L75.981 41.4343C76.1486 41.5467 76.372 41.5467 76.5117 41.4062L78.3551 39.7758C78.4668 39.6915 78.6065 39.6353 78.7182 39.6072L80.813 39.3823C80.9526 39.3542 81.0085 39.1574 80.8688 39.0731L74.1934 34.7443ZM73.1602 40.9284C73.2998 40.8722 73.4674 40.9003 73.5791 40.9846L75.4784 42.4463C75.5622 42.5306 75.6181 42.6431 75.6181 42.7836L75.4505 44.9199C75.4226 45.0323 75.3946 45.1167 75.3109 45.201L67.1271 53.4651C67.0713 53.5494 66.9596 53.4651 67.0154 53.3807L69.2778 49.6422C69.3057 49.6141 69.2778 49.5579 69.2499 49.5298H69.1661L68.4399 49.8109C68.384 49.8109 68.3561 49.7828 68.3282 49.7547V49.6985L71.4843 41.856C71.5402 41.7717 71.5961 41.6873 71.6799 41.6592L73.1602 40.9284Z" fill="#04D361"></path><path opacity="0.5" d="M34.249 145.666V137.438H37.133C37.932 137.384 38.7275 137.585 39.405 138.012C39.6624 138.207 39.8678 138.462 40.0028 138.755C40.1378 139.049 40.1983 139.371 40.179 139.693C40.1851 140.071 40.0755 140.443 39.865 140.757C39.654 141.067 39.3516 141.303 39 141.432C39.398 141.521 39.752 141.747 40 142.071C40.2491 142.411 40.3773 142.825 40.364 143.246C40.3872 143.584 40.3308 143.923 40.1993 144.236C40.0679 144.548 39.865 144.826 39.607 145.046C38.9783 145.491 38.2173 145.711 37.448 145.668L34.249 145.666ZM35.949 142.083V144.304H37.401C37.7368 144.324 38.0687 144.223 38.336 144.019C38.4481 143.922 38.5366 143.8 38.5948 143.664C38.653 143.527 38.6794 143.379 38.672 143.231C38.6911 143.074 38.6737 142.914 38.6213 142.765C38.5688 142.615 38.4828 142.48 38.3697 142.369C38.2566 142.258 38.1195 142.175 37.9691 142.126C37.8186 142.076 37.6588 142.062 37.502 142.084L35.949 142.083ZM35.949 140.883H37.203C38.0584 140.868 38.486 140.527 38.486 139.86C38.5001 139.71 38.478 139.558 38.4214 139.418C38.3649 139.278 38.2756 139.153 38.161 139.055C37.8535 138.867 37.4944 138.781 37.135 138.809H35.944L35.949 140.883ZM53.097 141.736C53.113 142.469 52.9665 143.196 52.668 143.866C52.4056 144.45 51.9758 144.943 51.433 145.282C50.8817 145.62 50.2455 145.793 49.599 145.782C48.9566 145.793 48.3241 145.622 47.774 145.29C47.2319 144.955 46.7999 144.468 46.531 143.89C46.2265 143.232 46.0741 142.515 46.085 141.79V141.377C46.0697 140.64 46.2193 139.909 46.523 139.238C46.7873 138.654 47.2179 138.161 47.761 137.82C48.3113 137.486 48.9452 137.314 49.589 137.326C50.2328 137.314 50.8668 137.486 51.417 137.82C51.9601 138.161 52.3907 138.654 52.655 139.238C52.9583 139.907 53.1079 140.636 53.093 141.371L53.097 141.736ZM51.379 141.363C51.4235 140.676 51.2623 139.992 50.916 139.397C50.7721 139.181 50.5748 139.005 50.3432 138.888C50.1116 138.77 49.8536 138.714 49.594 138.725C49.3361 138.714 49.0796 138.769 48.849 138.885C48.6184 139.002 48.4215 139.175 48.277 139.389C47.9301 139.977 47.7668 140.655 47.808 141.336V141.736C47.7683 142.419 47.9293 143.098 48.271 143.691C48.4123 143.915 48.61 144.097 48.8442 144.22C49.0784 144.343 49.3408 144.402 49.605 144.391C49.8628 144.402 50.1191 144.346 50.3489 144.229C50.5786 144.111 50.774 143.936 50.916 143.721C51.2583 143.13 51.4194 142.451 51.379 141.769V141.363ZM65.786 141.736C65.802 142.469 65.6555 143.196 65.357 143.866C65.0957 144.448 64.6681 144.94 64.128 145.279C63.5767 145.617 62.9405 145.79 62.294 145.779C61.6516 145.79 61.0191 145.619 60.469 145.287C59.9269 144.952 59.4949 144.465 59.226 143.887C58.9215 143.229 58.7691 142.512 58.78 141.787V141.377C58.7647 140.64 58.9143 139.909 59.218 139.238C59.4823 138.654 59.9129 138.161 60.456 137.82C61.0063 137.486 61.6402 137.314 62.284 137.326C62.9278 137.314 63.5618 137.486 64.112 137.82C64.6527 138.162 65.0808 138.655 65.343 139.239C65.6463 139.908 65.7959 140.637 65.781 141.372L65.786 141.736ZM64.063 141.366C64.1075 140.679 63.9463 139.995 63.6 139.4C63.4561 139.184 63.2588 139.008 63.0272 138.891C62.7956 138.773 62.5376 138.717 62.278 138.728C62.0201 138.717 61.7636 138.772 61.533 138.888C61.3024 139.005 61.1055 139.178 60.961 139.392C60.6141 139.98 60.4508 140.658 60.492 141.339V141.739C60.4523 142.422 60.6133 143.101 60.955 143.694C61.0963 143.918 61.294 144.1 61.5282 144.223C61.7624 144.346 62.0248 144.405 62.289 144.394C62.5468 144.405 62.8031 144.349 63.0329 144.232C63.2626 144.114 63.458 143.939 63.6 143.724C63.9433 143.131 64.1044 142.451 64.063 141.767V141.366ZM77.425 138.812H74.905V145.666H73.205V138.812H70.723V137.439H77.423L77.425 138.812ZM89.391 142.926C89.3789 143.323 89.2858 143.713 89.1172 144.073C88.9487 144.432 88.7084 144.754 88.411 145.017C87.754 145.549 86.9243 145.82 86.08 145.78C85.6116 145.802 85.1442 145.718 84.7131 145.534C84.282 145.349 83.8983 145.069 83.591 144.715C82.9458 143.882 82.6237 142.843 82.684 141.791V141.291C82.6692 140.572 82.8119 139.858 83.102 139.2C83.3548 138.628 83.7727 138.145 84.302 137.813C84.8457 137.484 85.4717 137.316 86.107 137.33C86.94 137.29 87.7578 137.562 88.401 138.093C89.0038 138.648 89.365 139.417 89.407 140.235H87.707C87.7079 139.808 87.5496 139.396 87.263 139.079C86.9361 138.815 86.5207 138.687 86.102 138.72C85.8563 138.704 85.6105 138.752 85.3884 138.858C85.1662 138.964 84.975 139.126 84.833 139.327C84.5096 139.9 84.3595 140.555 84.401 141.212V141.834C84.3508 142.509 84.4893 143.184 84.801 143.784C84.9406 143.99 85.1318 144.155 85.3554 144.263C85.5791 144.371 85.8273 144.418 86.075 144.4C86.4974 144.433 86.9165 144.305 87.248 144.041C87.532 143.741 87.6909 143.344 87.692 142.931L89.391 142.926ZM99.848 143.971H96.876L96.311 145.671H94.511L97.574 137.443H99.145L102.225 145.671H100.425L99.848 143.971ZM97.333 142.598H99.39L98.356 139.518L97.333 142.598ZM109.904 137.439L112.017 143.406L114.117 137.439H116.343V145.667H114.643V143.417L114.813 139.535L112.594 145.666H111.433L109.215 139.541L109.385 143.417V145.666H107.685V137.438L109.904 137.439ZM124.221 142.767V145.667H122.521V137.439H125.731C126.293 137.427 126.85 137.543 127.361 137.778C127.809 137.985 128.185 138.32 128.443 138.741C128.699 139.17 128.83 139.662 128.822 140.162C128.839 140.522 128.773 140.881 128.629 141.212C128.486 141.542 128.268 141.835 127.994 142.069C127.339 142.569 126.526 142.817 125.703 142.769L124.221 142.767ZM124.221 141.394H125.733C126.102 141.42 126.468 141.307 126.759 141.078C126.88 140.963 126.974 140.822 127.035 140.667C127.096 140.511 127.122 140.345 127.112 140.178C127.12 140 127.093 139.821 127.032 139.654C126.97 139.486 126.877 139.332 126.756 139.2C126.627 139.072 126.473 138.972 126.304 138.906C126.135 138.84 125.954 138.81 125.773 138.816H124.219L124.221 141.394Z" fill="white"></path><path d="M25.2287 118.492C23.9226 119.974 22.2434 121.079 20.3657 121.692C18.1278 122.473 15.7708 122.858 13.4007 122.828C10.9398 122.882 8.5091 122.277 6.36068 121.076C4.32648 119.89 2.69801 118.117 1.68868 115.99C0.540897 113.539 -0.0362424 110.86 0.000681276 108.154V106.054C-0.0659577 103.3 0.466671 100.565 1.56169 98.037C2.50176 95.8935 4.07111 94.0863 6.06169 92.855C8.14629 91.6257 10.5333 91.0043 12.9527 91.061C16.6193 91.061 19.486 91.9353 21.5527 93.684C23.729 95.65 25.048 98.3907 25.2267 101.318H19.0267C18.8891 99.8386 18.2218 98.4586 17.1477 97.432C16.0055 96.5545 14.5857 96.1172 13.1477 96.2C12.183 96.15 11.2215 96.3482 10.3552 96.7758C9.48898 97.2033 8.74682 97.8459 8.19969 98.642C7.06635 100.27 6.49302 102.691 6.47969 105.905V107.88C6.47969 111.122 7.09568 113.571 8.32768 115.228C8.95674 116.055 9.77987 116.714 10.7243 117.148C11.6688 117.581 12.7054 117.775 13.7427 117.713C16.1354 117.713 17.8413 117.203 18.8607 116.184V110.854H13.0607V106.161H25.2287V118.492ZM29.0287 110.698C28.9907 108.592 29.4415 106.506 30.3457 104.603C31.1705 102.877 32.4901 101.436 34.1367 100.462C35.8824 99.4601 37.8684 98.9535 39.8807 98.997C41.2719 98.9424 42.6599 99.166 43.9636 99.6547C45.2672 100.143 46.4602 100.887 47.4727 101.843C49.5083 103.91 50.6813 106.673 50.7537 109.573L50.7957 111.144C50.9462 114.247 49.8881 117.288 47.8437 119.628C46.8308 120.699 45.599 121.539 44.2321 122.092C42.8652 122.644 41.3954 122.895 39.9227 122.828C38.4497 122.895 36.9795 122.645 35.6111 122.096C34.2428 121.547 33.0082 120.71 31.9907 119.643C30.016 117.52 29.0287 114.632 29.0287 110.979V110.698ZM35.1657 111.144C35.0538 112.898 35.4839 114.643 36.3977 116.144C36.7912 116.707 37.3209 117.161 37.9373 117.463C38.5537 117.766 39.2367 117.908 39.9227 117.875C40.5996 117.902 41.2726 117.76 41.8808 117.461C42.4889 117.163 43.013 116.717 43.4057 116.165C44.241 115.025 44.6587 113.202 44.6587 110.697C44.7635 108.951 44.3258 107.215 43.4057 105.728C43.0152 105.16 42.487 104.7 41.8705 104.392C41.254 104.084 40.5694 103.937 39.8807 103.965C39.199 103.936 38.5213 104.082 37.9118 104.389C37.3023 104.696 36.7811 105.153 36.3977 105.717C35.4571 107.364 35.0292 109.254 35.1687 111.145L35.1657 111.144ZM71.0127 114.287C71.0416 113.756 70.9406 113.227 70.7186 112.744C70.4966 112.261 70.1603 111.84 69.7387 111.516C68.3211 110.611 66.775 109.925 65.1527 109.481C63.3463 108.93 61.5913 108.223 59.9077 107.368C56.3964 105.471 54.6407 102.915 54.6407 99.702C54.6193 98.0991 55.1144 96.5318 56.0527 95.232C57.0899 93.8486 58.4955 92.7851 60.1087 92.163C61.9941 91.405 64.0119 91.031 66.0437 91.063C68.0744 91.0272 70.0883 91.4368 71.9437 92.263C73.5793 92.9838 74.9756 94.1559 75.9687 95.642C76.9297 97.1191 77.4286 98.849 77.4017 100.611H71.0307C71.0652 99.9963 70.9631 99.3815 70.7317 98.811C70.5004 98.2404 70.1455 97.7281 69.6927 97.311C68.6282 96.4673 67.2893 96.0474 65.9337 96.132C64.6479 96.0541 63.3721 96.4009 62.3027 97.119C61.8909 97.414 61.5573 97.805 61.3308 98.2581C61.1043 98.7111 60.9916 99.2126 61.0027 99.719C61.0151 100.236 61.1616 100.74 61.4277 101.183C61.6938 101.626 62.0704 101.992 62.5207 102.246C63.9124 103.092 65.4175 103.735 66.9907 104.157C70.6147 105.247 73.255 106.599 74.9117 108.213C75.7224 108.99 76.3621 109.928 76.79 110.967C77.2179 112.005 77.4245 113.121 77.3967 114.244C77.4455 115.463 77.1941 116.674 76.6645 117.773C76.1349 118.872 75.3434 119.823 74.3597 120.544C71.9571 122.178 69.0853 122.98 66.1837 122.827C63.949 122.857 61.7335 122.411 59.6837 121.521C57.885 120.776 56.3349 119.535 55.2137 117.943C54.1744 116.386 53.637 114.548 53.6737 112.676H60.0657C60.0657 116.088 62.1043 117.794 66.1817 117.794C67.4315 117.867 68.6723 117.543 69.7277 116.87C70.1414 116.582 70.476 116.195 70.7007 115.743C70.9255 115.292 71.0331 114.792 71.0137 114.288L71.0127 114.287ZM88.6597 93.773V99.422H92.5887V103.922H88.6597V115.39C88.6004 116.037 88.7734 116.685 89.1477 117.216C89.405 117.431 89.7036 117.591 90.025 117.686C90.3465 117.781 90.684 117.809 91.0167 117.768C91.6217 117.774 92.2259 117.724 92.8217 117.619V122.27C91.6174 122.638 90.3649 122.824 89.1057 122.822C84.8017 122.822 82.6073 120.649 82.5227 116.303V103.924H79.1687V99.424H82.5237V93.775L88.6597 93.773ZM109.323 122.399C109.01 121.749 108.802 121.054 108.707 120.339C107.982 121.154 107.086 121.799 106.084 122.228C105.081 122.658 103.997 122.861 102.907 122.824C100.861 122.898 98.8621 122.201 97.3067 120.87C96.5936 120.266 96.0243 119.51 95.6405 118.657C95.2566 117.805 95.0677 116.878 95.0877 115.943C95.0333 114.857 95.2528 113.774 95.726 112.794C96.1991 111.815 96.9108 110.97 97.7957 110.337C99.601 109.034 102.21 108.376 105.622 108.362H108.446V107.045C108.492 106.124 108.201 105.218 107.628 104.497C107.295 104.157 106.891 103.894 106.445 103.729C105.999 103.564 105.522 103.5 105.048 103.541C104.174 103.49 103.311 103.753 102.616 104.284C102.323 104.534 102.092 104.848 101.939 105.201C101.786 105.555 101.716 105.938 101.735 106.323H95.5977C95.5972 104.989 96.0295 103.691 96.8297 102.623C97.7251 101.433 98.9298 100.511 100.313 99.958C101.914 99.2943 103.634 98.9656 105.367 98.992C107.799 98.861 110.195 99.6196 112.109 101.126C112.951 101.873 113.613 102.801 114.046 103.84C114.479 104.879 114.671 106.002 114.609 107.126V117.086C114.526 118.784 114.839 120.478 115.522 122.034V122.395L109.323 122.399ZM104.248 118.131C105.12 118.139 105.981 117.931 106.754 117.526C107.471 117.168 108.064 116.602 108.454 115.901V111.951H106.161C103.089 111.951 101.453 113.013 101.255 115.136L101.234 115.497C101.224 115.852 101.291 116.204 101.43 116.53C101.569 116.857 101.778 117.149 102.041 117.387C102.654 117.909 103.444 118.176 104.248 118.131ZM128.882 117.876C129.886 117.921 130.871 117.587 131.643 116.942C131.993 116.631 132.273 116.248 132.463 115.819C132.652 115.39 132.748 114.926 132.743 114.457H138.498C138.495 115.976 138.052 117.463 137.224 118.736C136.381 120.039 135.193 121.082 133.794 121.752C132.295 122.478 130.648 122.845 128.984 122.824C127.539 122.897 126.095 122.654 124.753 122.114C123.411 121.573 122.202 120.747 121.212 119.692C119.316 117.604 118.369 114.719 118.369 111.038V110.638C118.211 107.559 119.219 104.533 121.193 102.165C122.173 101.101 123.376 100.266 124.716 99.7194C126.055 99.1726 127.499 98.9273 128.944 99.001C131.48 98.8788 133.963 99.7599 135.856 101.454C136.728 102.297 137.414 103.313 137.87 104.437C138.326 105.561 138.541 106.769 138.502 107.981H132.747C132.765 106.909 132.371 105.871 131.647 105.081C131.285 104.709 130.848 104.417 130.366 104.225C129.883 104.033 129.366 103.944 128.847 103.966C128.219 103.929 127.592 104.053 127.025 104.327C126.458 104.6 125.97 105.013 125.608 105.527C124.878 106.568 124.514 108.256 124.514 110.592V111.229C124.514 113.593 124.875 115.293 125.597 116.329C125.968 116.845 126.464 117.259 127.038 117.53C127.613 117.802 128.247 117.922 128.882 117.881V117.876ZM150.352 113.181L148.143 115.392V122.4H142.006V89.781H148.143V107.853L149.332 106.324L155.214 99.424H162.583L154.283 109.001L163.308 122.401H156.256L150.352 113.181Z" fill="white"></path></svg>
